# xmcd
#
# Track frame offsets:
# 150
# 14923
# 32624
# 54883
# 73771
# 92046
# 111115
# 128940
# 148525
# 167130
# 185515
# 204068
# 223957
# 244982
#
# Disc length: 3586 seconds
#
#
# Revision: 3
# Processed by: cddbd v1.5.2PL0 Copyright (c) Steve Scherf et al.
# Submitted via: FreeRIP 2.90 
#
DISCID=cf0e000e
DTITLE=Various Artist - Boleros Internacionais
DYEAR=2001
DGENRE=Ballad
TTITLE0=Tracy Chapman - Baby can i hold you
TTITLE1=Nazareth - Love hurts
TTITLE2=Elton John - Nikita
TTITLE3=Jim Diamond - I should have known better
TTITLE4=Lionel Richie - Say you say me
TTITLE5=Berlim - Take my breath away
TTITLE6=Crowded House - Don't dream it's over
TTITLE7=Peter Cetera - The glory of love
TTITLE8=Bryan Adams - Heaven
TTITLE9=Bee Gees - How deep is your love
TTITLE10=Chris de Burgh - The lady in red
TTITLE11=Steve Wonder - I just called to say i love you
TTITLE12=Roxette - Spending my time
TTITLE13=Paul Young - Everytime you go away
EXTD=by Padre®
EXTT0=
EXTT1=
EXTT2=
EXTT3=
EXTT4=
EXTT5=
EXTT6=
EXTT7=
EXTT8=
EXTT9=
EXTT10=
EXTT11=
EXTT12=
EXTT13=
PLAYORDER=
